<?xml version="1.0" encoding="UTF-8"?>
<svg id="Layer_1" xmlns="http://www.w3.org/2000/svg" version="1.1" viewBox="0 0 800 800">
  <!-- Generator: Adobe Illustrator 29.5.1, SVG Export Plug-In . SVG Version: 2.1.0 Build 141)  -->
  <defs>
    <style>
      .st0 {
        fill: #0f1729;
      }

      .st0, .st1 {
        fill-rule: evenodd;
      }

      .st1 {
        fill: #fff;
      }
    </style>
  </defs>
  <path class="st0" d="M400,266.7c-73.6,0-133.3,59.7-133.3,133.3s59.7,133.3,133.3,133.3,133.3-59.7,133.3-133.3-59.7-133.3-133.3-133.3ZM333.3,400c0-36.8,29.8-66.7,66.7-66.7s66.7,29.9,66.7,66.7-29.8,66.7-66.7,66.7-66.7-29.8-66.7-66.7Z"/>
  <path class="st1" d="M400,266.7c-73.6,0-133.3,59.7-133.3,133.3s59.7,133.3,133.3,133.3,133.3-59.7,133.3-133.3-59.7-133.3-133.3-133.3ZM333.3,400c0-36.8,29.8-66.7,66.7-66.7s66.7,29.9,66.7,66.7-29.8,66.7-66.7,66.7-66.7-29.8-66.7-66.7Z"/>
  <path class="st1" d="M358.9,33.9c7.5-.6,15.9-.6,22.8-.6h36.6c6.9,0,15.3,0,22.8.6,8.9.7,21.2,2.4,34.4,8.4,16.7,7.6,30.9,19.6,41.2,34.7,8.2,12,11.9,23.8,14.1,32.4,1.8,7.3,3.3,15.6,4.4,22.4l4.7,27.4h0c1.2.7,2.3,1.3,3.5,2h0s31.2-11.3,31.2-11.3c6.3-2.3,14.1-5.1,21.3-7.1,8.5-2.4,20.4-4.9,34.6-3.8,18,1.3,35.3,7.5,50.1,17.8,11.7,8.2,19.3,17.7,24.4,24.9,4.3,6.1,8.5,13.2,12,19l16.7,28c3.7,6.1,8.1,13.6,11.6,20.5,4.1,8.2,9,20,10.5,34.8,1.9,18.7-1.6,37.6-9.9,54.4-6.6,13.4-15.4,22.7-22.1,28.9-5.7,5.3-12.5,10.7-18,15.1l-22.5,17.5,22.5,17.5c5.6,4.4,12.4,9.8,18,15.1,6.7,6.2,15.5,15.5,22.1,28.9,8.4,16.9,11.8,35.7,9.9,54.4-1.5,14.9-6.4,26.7-10.5,34.8-3.4,6.9-7.9,14.4-11.6,20.5l-16.7,28c-3.5,5.8-7.7,12.9-12,19-5.1,7.2-12.7,16.7-24.4,24.9-14.8,10.4-32.1,16.5-50.1,17.8-14.2,1-26.2-1.5-34.6-3.8-7.1-2-14.9-4.8-21.3-7.1l-31.2-11.3h0c-1.2.7-2.3,1.4-3.5,2h0s-4.7,27.4-4.7,27.4c-1.2,6.8-2.6,15.1-4.4,22.4-2.2,8.6-6,20.5-14.1,32.4-10.3,15.1-24.6,27.2-41.2,34.7-13.2,6-25.5,7.7-34.4,8.4-7.5.6-15.9.6-22.8.6h-36.6c-6.9,0-15.3,0-22.8-.6-8.9-.7-21.2-2.4-34.4-8.4-16.7-7.6-30.9-19.6-41.2-34.7-8.2-12-11.9-23.8-14.1-32.4-1.8-7.3-3.3-15.6-4.4-22.4l-4.7-27.4h0c-1.2-.7-2.3-1.3-3.5-2h0s-31.2,11.3-31.2,11.3c-6.3,2.3-14.1,5.1-21.3,7.1-8.5,2.4-20.4,4.9-34.6,3.8-18-1.3-35.3-7.5-50.1-17.8-11.7-8.2-19.3-17.7-24.4-24.9-4.3-6.1-8.5-13.2-12-19l-16.7-28c-3.7-6.1-8.1-13.6-11.6-20.5-4.1-8.2-9-20-10.5-34.8-1.9-18.7,1.6-37.6,9.9-54.4,6.6-13.4,15.4-22.7,22.1-28.9,5.7-5.3,12.5-10.7,18-15.1l21.8-17.3v-.4l-21.8-17.3c-5.6-4.4-12.4-9.8-18-15.1-6.7-6.2-15.5-15.5-22.1-28.9-8.4-16.9-11.8-35.7-9.9-54.4,1.5-14.9,6.4-26.7,10.5-34.8,3.4-6.9,7.9-14.4,11.6-20.5l16.7-28c3.5-5.8,7.7-12.9,12-19,5.1-7.2,12.7-16.7,24.4-24.9,14.8-10.4,32.1-16.5,50.1-17.8,14.2-1,26.1,1.5,34.6,3.8,7.1,2,14.9,4.8,21.3,7.1l31.2,11.3h0c1.1-.7,2.3-1.4,3.5-2h0c0,0,4.7-27.4,4.7-27.4,1.2-6.8,2.6-15.1,4.4-22.4,2.2-8.6,6-20.5,14.1-32.4,10.3-15.1,24.6-27.2,41.2-34.7,13.2-6,25.5-7.7,34.4-8.4ZM469.8,144.5c-2.8-16-4.1-24-8.2-30-3.4-5-8.2-9.1-13.7-11.6-6.6-3-14.7-3-30.9-3h-33.8c-16.2,0-24.4,0-30.9,3-5.6,2.5-10.3,6.5-13.7,11.6-4.1,6-5.4,14-8.2,30l-5.2,30.1c-1.9,10.8-2.8,16.1-4.7,20.3-1.9,4.1-3.5,6.3-6.7,9.4-3.3,3.2-9.3,6.5-21.4,13.2-.9.5-1.8,1-2.7,1.5-11.5,6.6-17.3,9.9-21.6,11-4.2,1.1-6.8,1.3-11.2,1-4.4-.4-9.4-2.2-19.2-5.7l-33.8-12.2c-15-5.4-22.5-8.1-29.6-7.6-6,.4-11.8,2.5-16.7,5.9-5.8,4.1-9.9,10.9-18.1,24.6l-15.3,25.6c-8.6,14.4-12.9,21.6-13.7,29-.6,6.2.5,12.5,3.3,18.1,3.3,6.7,9.9,11.9,23,22.4l24.2,19.2c8.4,6.7,12.6,10,15.2,13.6,2.8,3.9,4.1,6.4,5.3,11,1.2,4.3,1.2,11.2,1.2,25s0,20.7-1.2,25c-1.3,4.6-2.5,7.1-5.3,11-2.6,3.6-6.8,6.9-15.2,13.6l-24.2,19.2c-13.2,10.5-19.7,15.7-23,22.4-2.8,5.6-3.9,11.9-3.3,18.1.7,7.4,5.1,14.6,13.7,29l15.3,25.6c8.2,13.7,12.3,20.5,18.1,24.6,4.9,3.5,10.7,5.5,16.7,5.9,7.1.5,14.6-2.2,29.6-7.6l33.8-12.2c9.9-3.6,14.8-5.4,19.2-5.7,4.3-.4,7-.1,11.2,1,4.3,1.1,10.1,4.4,21.6,11,.9.5,1.8,1,2.7,1.5,12.1,6.7,18.1,10,21.4,13.2,3.2,3.2,4.8,5.4,6.7,9.4,2,4.1,2.9,9.5,4.7,20.3l5.2,30.1c2.8,16,4.1,24,8.2,30,3.4,5,8.2,9,13.7,11.6,6.6,3,14.7,3,30.9,3h33.8c16.2,0,24.3,0,30.9-3,5.6-2.5,10.3-6.5,13.7-11.6,4.1-6,5.4-14,8.2-30l5.2-30.1c1.9-10.8,2.8-16.1,4.7-20.3,1.9-4.1,3.5-6.3,6.7-9.4,3.3-3.2,9.3-6.6,21.4-13.2.9-.5,1.8-1,2.7-1.5,11.5-6.6,17.3-9.9,21.6-11,4.2-1.1,6.8-1.3,11.2-1,4.4.4,9.4,2.2,19.2,5.7l33.8,12.2c15,5.4,22.5,8.1,29.6,7.6,6-.4,11.8-2.5,16.7-5.9,5.8-4.1,9.9-10.9,18.1-24.6l15.3-25.6c8.6-14.4,12.9-21.6,13.7-29,.6-6.2-.5-12.5-3.3-18.1-3.3-6.7-9.9-11.9-23-22.4l-24.2-19.2c-8.4-6.7-12.6-10-15.2-13.6-2.8-3.9-4.1-6.4-5.3-11-1.2-4.3-1.2-11.2-1.2-25s0-20.7,1.2-25c1.3-4.6,2.5-7.1,5.3-11,2.6-3.6,6.8-6.9,15.2-13.6l24.2-19.2c13.2-10.5,19.7-15.7,23-22.4,2.8-5.6,3.9-11.9,3.3-18.1-.7-7.4-5.1-14.6-13.7-29l-15.3-25.6c-8.2-13.7-12.3-20.5-18.1-24.6-4.9-3.5-10.7-5.5-16.7-5.9-7.1-.5-14.6,2.2-29.6,7.6l-33.8,12.2c-9.9,3.6-14.8,5.4-19.2,5.7-4.3.4-7,.1-11.2-1-4.3-1.1-10.1-4.4-21.6-11-.9-.5-1.8-1-2.7-1.5-12.1-6.7-18.1-10-21.4-13.2-3.2-3.2-4.8-5.4-6.7-9.4-2-4.1-2.9-9.5-4.7-20.3l-5.2-30.1Z"/>
</svg>